<mxfile host="app.diagrams.net" modified="2024-01-29T02:19:24.549Z" agent="Mozilla/5.0 (Windows NT 10.0; Win64; x64) AppleWebKit/537.36 (KHTML, like Gecko) Chrome/121.0.0.0 Safari/537.36" version="23.0.2" etag="wLbtWVlx6rjXYeEaxjY9" type="github">
  <diagram name="페이지-1" id="khb4IWp-zjTBe_Rk_N4d">
    <mxGraphModel>
      <root>
        <mxCell id="0" />
        <mxCell id="1" parent="0" />
      </root>
    </mxGraphModel>
  </diagram>
</mxfile>
